# xmcd
#
# Track frame offsets: 
#        150
#        15017
#        36400
#        47125
#        82370
#        102490
#        123257
#        158087
#        176555
#        199612
#
# Disc length: 3360 seconds
#
# Revision: 5
# Processed by: cddbd v1.5.2PL0 Copyright (c) Steve Scherf et al.
# Submitted via: ExactAudioCopy v0.95b2
#
DISCID=7c0d1e0a
DTITLE=Canned Heat and John Lee Hooker  - The Best of Hooker 'N Heat
DYEAR=1996
DGENRE=Rock
TTITLE0=You Talk Too Much
TTITLE1=Burning Hell
TTITLE2=Bottle Up and Go
TTITLE3=The World Today
TTITLE4=I Got My Eyes on You
TTITLE5=Whiskey and Wimmen'
TTITLE6=Just You and Me
TTITLE7=Let's Make It
TTITLE8=Peavine
TTITLE9=Boogie Chillen No. 2
EXTD=YEAR: 1996
EXTT0=
EXTT1=
EXTT2=
EXTT3=
EXTT4=
EXTT5=
EXTT6=
EXTT7=
EXTT8=
EXTT9=
PLAYORDER=
